<svg width="211" height="110" viewBox="0 0 211 110" fill="none" xmlns="http://www.w3.org/2000/svg">
<g clip-path="url(#clip0_808_195541)">
<rect width="7.96639" height="68.9591" transform="translate(0.0698242 0.978027)" fill="#FAFAFA"/>
<path d="M5.05322 38.7188H2.88057V37.9444C2.88057 37.7754 2.91133 37.6353 2.97286 37.5243C3.0344 37.4133 3.11856 37.3302 3.22535 37.275C3.33144 37.2198 3.45096 37.1922 3.58392 37.1922C3.71759 37.1922 3.83782 37.2202 3.94462 37.276C4.0507 37.3312 4.13487 37.4147 4.1971 37.5264C4.25863 37.6374 4.2894 37.7771 4.2894 37.9455V38.478H4.01145V37.9752C4.01145 37.8684 3.99306 37.7817 3.95629 37.7152C3.9188 37.6488 3.86788 37.6 3.80352 37.5688C3.73916 37.5377 3.66596 37.5222 3.58392 37.5222C3.50188 37.5222 3.42904 37.5377 3.36539 37.5688C3.30173 37.6 3.25187 37.6491 3.2158 37.7163C3.17973 37.7828 3.1617 37.8705 3.1617 37.9794V38.391H5.05322V38.7188ZM5.08611 36.1674C5.08611 36.3202 5.0511 36.4535 4.98108 36.5674C4.91107 36.6813 4.81311 36.7697 4.68722 36.8326C4.56133 36.8956 4.41423 36.927 4.2459 36.927C4.07687 36.927 3.92906 36.8956 3.80246 36.8326C3.67587 36.7697 3.57756 36.6813 3.50754 36.5674C3.43752 36.4535 3.40252 36.3202 3.40252 36.1674C3.40252 36.0147 3.43752 35.8814 3.50754 35.7675C3.57756 35.6536 3.67587 35.5652 3.80246 35.5023C3.92906 35.4393 4.07687 35.4079 4.2459 35.4079C4.41423 35.4079 4.56133 35.4393 4.68722 35.5023C4.81311 35.5652 4.91107 35.6536 4.98108 35.7675C5.0511 35.8814 5.08611 36.0147 5.08611 36.1674ZM4.81983 36.1664C4.81983 36.0674 4.79366 35.9853 4.74133 35.9203C4.68899 35.8552 4.61933 35.8071 4.53234 35.776C4.44535 35.7442 4.34952 35.7282 4.24484 35.7282C4.14088 35.7282 4.0454 35.7442 3.95841 35.776C3.87071 35.8071 3.80034 35.8552 3.7473 35.9203C3.69425 35.9853 3.66773 36.0674 3.66773 36.1664C3.66773 36.2661 3.69425 36.3489 3.7473 36.4146C3.80034 36.4797 3.87071 36.5281 3.95841 36.56C4.0454 36.5911 4.14088 36.6066 4.24484 36.6066C4.34952 36.6066 4.44535 36.5911 4.53234 36.56C4.61933 36.5281 4.68899 36.4797 4.74133 36.4146C4.79366 36.3489 4.81983 36.2661 4.81983 36.1664ZM5.08611 34.3674C5.08611 34.5202 5.0511 34.6535 4.98108 34.7674C4.91107 34.8812 4.81311 34.9696 4.68722 35.0326C4.56133 35.0955 4.41423 35.127 4.2459 35.127C4.07687 35.127 3.92906 35.0955 3.80246 35.0326C3.67587 34.9696 3.57756 34.8812 3.50754 34.7674C3.43752 34.6535 3.40252 34.5202 3.40252 34.3674C3.40252 34.2147 3.43752 34.0813 3.50754 33.9675C3.57756 33.8536 3.67587 33.7652 3.80246 33.7023C3.92906 33.6393 4.07687 33.6078 4.2459 33.6078C4.41423 33.6078 4.56133 33.6393 4.68722 33.7023C4.81311 33.7652 4.91107 33.8536 4.98108 33.9675C5.0511 34.0813 5.08611 34.2147 5.08611 34.3674ZM4.81983 34.3664C4.81983 34.2673 4.79366 34.1853 4.74133 34.1202C4.68899 34.0552 4.61933 34.0071 4.53234 33.976C4.44535 33.9441 4.34952 33.9282 4.24484 33.9282C4.14088 33.9282 4.0454 33.9441 3.95841 33.976C3.87071 34.0071 3.80034 34.0552 3.7473 34.1202C3.69425 34.1853 3.66773 34.2673 3.66773 34.3664C3.66773 34.4661 3.69425 34.5488 3.7473 34.6146C3.80034 34.6797 3.87071 34.7281 3.95841 34.7599C4.0454 34.7911 4.14088 34.8066 4.24484 34.8066C4.34952 34.8066 4.44535 34.7911 4.53234 34.7599C4.61933 34.7281 4.68899 34.6797 4.74133 34.6146C4.79366 34.5488 4.81983 34.4661 4.81983 34.3664ZM2.88057 32.9366H5.05322V33.2538H2.88057V32.9366Z" fill="black"/>
<g clip-path="url(#clip1_808_195541)">
<g clip-path="url(#clip2_808_195541)">
<path d="M8.03613 0.978027H209.686C210.373 0.978027 210.93 1.53532 210.93 2.22278V35.4576H8.03613V0.978027Z" fill="#3B82F6" fill-opacity="0.3"/>
<path d="M13.4088 23.7941C13.3084 23.8054 13.2306 23.8521 13.1754 23.9341C13.1196 24.0162 13.0916 24.1194 13.0916 24.2439C13.0916 24.333 13.1058 24.4101 13.1341 24.4752C13.1617 24.5402 13.1998 24.5908 13.2486 24.6269C13.2967 24.6622 13.3515 24.6799 13.4131 24.6799C13.4647 24.6799 13.5093 24.6679 13.5467 24.6438C13.5842 24.6191 13.6157 24.5869 13.6412 24.5473C13.6659 24.507 13.6868 24.4639 13.7038 24.4179C13.72 24.3719 13.7335 24.3277 13.7441 24.2853L13.7992 24.0731C13.8162 24.0038 13.8392 23.9327 13.8682 23.8599C13.8972 23.787 13.9354 23.7195 13.9828 23.6572C14.0301 23.595 14.0888 23.5448 14.1589 23.5066C14.2289 23.4677 14.3127 23.4482 14.4103 23.4482C14.5334 23.4482 14.6426 23.4801 14.7381 23.5437C14.8336 23.6067 14.9089 23.6983 14.9641 23.8185C15.0192 23.938 15.0468 24.0826 15.0468 24.2524C15.0468 24.4151 15.021 24.5558 14.9694 24.6746C14.9177 24.7934 14.8445 24.8864 14.7498 24.9536C14.6543 25.0208 14.5411 25.0579 14.4103 25.065V24.7361C14.4888 24.7298 14.5542 24.7043 14.6066 24.6598C14.6582 24.6145 14.6967 24.5569 14.7222 24.4868C14.7469 24.4161 14.7593 24.3387 14.7593 24.2545C14.7593 24.1619 14.7448 24.0795 14.7158 24.0073C14.6861 23.9345 14.6451 23.8772 14.5928 23.8355C14.5397 23.7937 14.4778 23.7729 14.4071 23.7729C14.3428 23.7729 14.2901 23.7913 14.249 23.828C14.208 23.8641 14.1741 23.9133 14.1472 23.9755C14.1203 24.037 14.0966 24.1067 14.0761 24.1845L14.0061 24.4412C13.9587 24.6152 13.8891 24.7531 13.7971 24.855C13.7052 24.9561 13.5835 25.0067 13.4322 25.0067C13.307 25.0067 13.1977 24.9727 13.1044 24.9048C13.011 24.8369 12.9385 24.745 12.8869 24.629C12.8346 24.513 12.8084 24.3822 12.8084 24.2365C12.8084 24.0894 12.8342 23.9596 12.8858 23.8471C12.9375 23.734 13.0085 23.6449 13.0991 23.5798C13.1889 23.5147 13.2921 23.4808 13.4088 23.478V23.7941ZM15.0107 22.7287L13.3813 23.2082V22.8804L14.5779 22.5611V22.5452L13.3813 22.2248V21.897L14.5726 21.5787V21.5628L13.3813 21.2456V20.9178L15.0107 21.3963V21.7198L13.8342 22.0508V22.0752L15.0107 22.4062V22.7287ZM15.0107 20.6168H13.3813V20.2996H15.0107V20.6168ZM13.1298 20.4566C13.1298 20.5118 13.1114 20.5592 13.0747 20.5988C13.0372 20.6377 12.9926 20.6571 12.941 20.6571C12.8887 20.6571 12.8441 20.6377 12.8073 20.5988C12.7698 20.5592 12.7511 20.5118 12.7511 20.4566C12.7511 20.4014 12.7698 20.3544 12.8073 20.3155C12.8441 20.2759 12.8887 20.2561 12.941 20.2561C12.9926 20.2561 13.0372 20.2759 13.0747 20.3155C13.1114 20.3544 13.1298 20.4014 13.1298 20.4566ZM15.0107 19.8729H13.3813V19.5684H13.6465V19.5482C13.5566 19.5143 13.4866 19.4588 13.4364 19.3817C13.3855 19.3046 13.36 19.2123 13.36 19.1048C13.36 18.9959 13.3855 18.9046 13.4364 18.8311C13.4873 18.7568 13.5574 18.702 13.6465 18.6667V18.6497C13.5595 18.6108 13.4902 18.5489 13.4385 18.464C13.3862 18.3792 13.36 18.278 13.36 18.1606C13.36 18.0128 13.4064 17.8922 13.499 17.7989C13.5917 17.7048 13.7313 17.6578 13.9181 17.6578H15.0107V17.975H13.9478C13.8374 17.975 13.7575 18.005 13.708 18.0652C13.6585 18.1253 13.6337 18.1971 13.6337 18.2805C13.6337 18.3838 13.6656 18.464 13.7292 18.5213C13.7922 18.5786 13.8731 18.6073 13.9722 18.6073H15.0107V18.9234H13.9276C13.8392 18.9234 13.7681 18.951 13.7144 19.0061C13.6606 19.0613 13.6337 19.1331 13.6337 19.2215C13.6337 19.2816 13.6497 19.3371 13.6815 19.3881C13.7126 19.4383 13.7561 19.4789 13.812 19.5101C13.8678 19.5405 13.9325 19.5557 14.0061 19.5557H15.0107V19.8729ZM12.8381 16.9154H15.0107V17.2326H12.8381V16.9154ZM15.0468 16.0145C15.0468 16.1178 15.0277 16.2111 14.9895 16.2946C14.9506 16.378 14.8944 16.4441 14.8208 16.4929C14.7473 16.541 14.6571 16.5651 14.5503 16.5651C14.4584 16.5651 14.3827 16.5474 14.3233 16.512C14.2639 16.4767 14.2169 16.4289 14.1822 16.3688C14.1476 16.3087 14.1214 16.2415 14.1037 16.1673C14.086 16.093 14.0726 16.0173 14.0634 15.9402C14.0521 15.8426 14.0429 15.7634 14.0358 15.7026C14.028 15.6418 14.0157 15.5976 13.9987 15.57C13.9817 15.5424 13.9541 15.5286 13.9159 15.5286H13.9085C13.8159 15.5286 13.7441 15.5548 13.6931 15.6071C13.6422 15.6588 13.6168 15.7358 13.6168 15.8384C13.6168 15.9452 13.6405 16.0293 13.6878 16.0909C13.7345 16.1517 13.7865 16.1938 13.8438 16.2171L13.7759 16.5152C13.6769 16.4799 13.597 16.4282 13.5361 16.3603C13.4746 16.2917 13.4301 16.2129 13.4025 16.1238C13.3742 16.0347 13.36 15.9409 13.36 15.8426C13.36 15.7776 13.3678 15.7086 13.3834 15.6358C13.3982 15.5622 13.4258 15.4936 13.4661 15.43C13.5064 15.3656 13.5641 15.3129 13.639 15.2719C13.7133 15.2309 13.8098 15.2104 13.9287 15.2104H15.0107V15.5201H14.788V15.5329C14.829 15.5534 14.8693 15.5841 14.9089 15.6252C14.9485 15.6662 14.9814 15.7189 15.0076 15.7832C15.0337 15.8476 15.0468 15.9247 15.0468 16.0145ZM14.7922 15.9455C14.7922 15.8578 14.7749 15.7829 14.7402 15.7206C14.7056 15.6577 14.6603 15.61 14.6044 15.5774C14.5479 15.5442 14.4874 15.5276 14.423 15.5276H14.213C14.2243 15.5389 14.2349 15.5608 14.2448 15.5933C14.254 15.6252 14.2621 15.6616 14.2692 15.7026C14.2756 15.7436 14.2816 15.7836 14.2872 15.8225C14.2922 15.8614 14.2964 15.8939 14.3 15.9201C14.3077 15.9816 14.3208 16.0378 14.3392 16.0888C14.3576 16.139 14.3841 16.1793 14.4188 16.2097C14.4527 16.2394 14.498 16.2543 14.5546 16.2543C14.6331 16.2543 14.6925 16.2253 14.7328 16.1673C14.7724 16.1093 14.7922 16.0354 14.7922 15.9455ZM14.0432 14.4707H15.0107V14.7879H13.3813V14.4834H13.6465V14.4632C13.5602 14.4258 13.4909 14.3671 13.4385 14.2871C13.3862 14.2065 13.36 14.105 13.36 13.9827C13.36 13.8716 13.3834 13.7744 13.4301 13.6909C13.476 13.6075 13.5446 13.5428 13.6359 13.4968C13.7271 13.4508 13.8399 13.4278 13.9743 13.4278H15.0107V13.745H14.0125C13.8944 13.745 13.8021 13.7758 13.7356 13.8373C13.6684 13.8989 13.6348 13.9834 13.6348 14.0909C13.6348 14.1644 13.6507 14.2299 13.6825 14.2871C13.7144 14.3437 13.761 14.3886 13.8226 14.4219C13.8834 14.4544 13.9569 14.4707 14.0432 14.4707ZM15.0436 12.3001C15.0436 12.4607 15.0093 12.599 14.9407 12.7149C14.8714 12.8302 14.7742 12.9193 14.649 12.9823C14.5231 13.0445 14.3756 13.0756 14.2066 13.0756C14.0397 13.0756 13.8926 13.0445 13.7653 12.9823C13.638 12.9193 13.5386 12.8316 13.4672 12.7192C13.3958 12.606 13.36 12.4738 13.36 12.3224C13.36 12.2305 13.3752 12.1414 13.4057 12.0551C13.4361 11.9688 13.4838 11.8914 13.5489 11.8228C13.6139 11.7541 13.6985 11.7 13.8024 11.6604C13.9057 11.6208 14.0312 11.601 14.179 11.601H14.2915V12.8963H14.0538V11.9119C13.9704 11.9119 13.8965 11.9288 13.8321 11.9628C13.7671 11.9967 13.7158 12.0445 13.6783 12.106C13.6408 12.1668 13.6221 12.2383 13.6221 12.3203C13.6221 12.4094 13.644 12.4872 13.6878 12.5537C13.731 12.6195 13.7876 12.6704 13.8576 12.7065C13.9269 12.7418 14.0022 12.7595 14.0835 12.7595H14.2692C14.3781 12.7595 14.4708 12.7404 14.5471 12.7022C14.6235 12.6633 14.6819 12.6092 14.7222 12.5399C14.7618 12.4706 14.7816 12.3896 14.7816 12.297C14.7816 12.2368 14.7731 12.182 14.7561 12.1325C14.7385 12.083 14.7123 12.0402 14.6776 12.0042C14.643 11.9681 14.6002 11.9405 14.5493 11.9214L14.6034 11.6212C14.6918 11.6452 14.7692 11.6884 14.8357 11.7506C14.9015 11.8121 14.9527 11.8896 14.9895 11.9829C15.0256 12.0756 15.0436 12.1813 15.0436 12.3001Z" fill="black"/>
<g clip-path="url(#clip3_808_195541)">
<path d="M30.3173 21.9524C31.3076 21.9524 32.2575 21.559 32.9578 20.8586C33.6581 20.1583 34.0515 19.2085 34.0515 18.2181C34.0515 17.2278 33.6581 16.2779 32.9578 15.5776C32.2575 14.8773 31.3076 14.4839 30.3173 14.4839C29.3269 14.4839 28.3771 14.8773 27.6767 15.5776C26.9764 16.2779 26.583 17.2278 26.583 18.2181C26.583 19.2085 26.9764 20.1583 27.6767 20.8586C28.3771 21.559 29.3269 21.9524 30.3173 21.9524Z" fill="#FAFAFA" stroke="#1B1B1B" stroke-width="0.19916" stroke-linecap="round" stroke-linejoin="round"/>
</g>
<path d="M45.3424 18.3063C45.391 18.2577 45.391 18.1789 45.3424 18.1302L44.5502 17.3381C44.5016 17.2895 44.4228 17.2895 44.3742 17.3381C44.3256 17.3867 44.3256 17.4655 44.3742 17.5141L45.0783 18.2183L44.3742 18.9224C44.3256 18.971 44.3256 19.0498 44.3742 19.0984C44.4228 19.147 44.5016 19.147 44.5502 19.0984L45.3424 18.3063ZM35.2964 18.3427H45.2544V18.0938H35.2964V18.3427Z" fill="#1B1B1B"/>
<rect x="45.3789" y="9.38033" width="32.3635" height="17.6754" rx="1.12027" fill="#FAFAFA"/>
<rect x="45.3789" y="9.38033" width="32.3635" height="17.6754" rx="1.12027" stroke="#1B1B1B" stroke-width="0.24895"/>
<path d="M87.9127 18.3063C87.9613 18.2577 87.9613 18.1789 87.9127 18.1302L87.1206 17.3381C87.0719 17.2895 86.9931 17.2895 86.9445 17.3381C86.8959 17.3867 86.8959 17.4655 86.9445 17.5141L87.6487 18.2183L86.9445 18.9224C86.8959 18.971 86.8959 19.0498 86.9445 19.0984C86.9931 19.147 87.0719 19.147 87.1206 19.0984L87.9127 18.3063ZM77.8667 18.3427H87.8247V18.0938H77.8667V18.3427Z" fill="#1B1B1B"/>
<rect x="88.6106" y="18.2017" width="5.9064" height="5.9064" rx="0.485452" transform="rotate(-45 88.6106 18.2017)" fill="#FAFAFA"/>
<rect x="88.6106" y="18.2017" width="5.9064" height="5.9064" rx="0.485452" transform="rotate(-45 88.6106 18.2017)" stroke="#1B1B1B" stroke-width="0.24895"/>
<g clip-path="url(#clip4_808_195541)">
<rect width="4.61651" height="4.61651" transform="translate(89.5225 18.2017) rotate(-45)" fill="#FAFAFA"/>
<path d="M91.835 17.2495L93.7392 19.1537" stroke="#1B1B1B" stroke-width="0.24895" stroke-linecap="round" stroke-linejoin="round"/>
<path d="M91.835 19.1538L93.7392 17.2496" stroke="#1B1B1B" stroke-width="0.24895" stroke-linecap="round" stroke-linejoin="round"/>
</g>
<path d="M107.829 18.3063C107.877 18.2577 107.877 18.1789 107.829 18.1302L107.037 17.3381C106.988 17.2895 106.909 17.2895 106.861 17.3381C106.812 17.3867 106.812 17.4655 106.861 17.5141L107.565 18.2183L106.861 18.9224C106.812 18.971 106.812 19.0498 106.861 19.0984C106.909 19.147 106.988 19.147 107.037 19.0984L107.829 18.3063ZM97.7827 18.3427H107.741V18.0938H97.7827V18.3427Z" fill="#1B1B1B"/>
<rect x="107.865" y="9.38033" width="32.3635" height="17.6754" rx="1.12027" fill="#FAFAFA"/>
<rect x="107.865" y="9.38033" width="32.3635" height="17.6754" rx="1.12027" stroke="#1B1B1B" stroke-width="0.24895"/>
<path d="M150.399 18.3063C150.448 18.2577 150.448 18.1789 150.399 18.1302L149.607 17.3381C149.558 17.2895 149.479 17.2895 149.431 17.3381C149.382 17.3867 149.382 17.4655 149.431 17.5141L150.135 18.2183L149.431 18.9224C149.382 18.971 149.382 19.0498 149.431 19.0984C149.479 19.147 149.558 19.147 149.607 19.0984L150.399 18.3063ZM140.353 18.3427H150.311V18.0938H140.353V18.3427Z" fill="#1B1B1B"/>
<rect x="150.436" y="9.38033" width="32.3635" height="17.6754" rx="1.12027" fill="#FAFAFA"/>
<rect x="150.436" y="9.38033" width="32.3635" height="17.6754" rx="1.12027" stroke="#1B1B1B" stroke-width="0.24895"/>
<path d="M192.969 18.3063C193.018 18.2577 193.018 18.1789 192.969 18.1302L192.177 17.3381C192.129 17.2895 192.05 17.2895 192.001 17.3381C191.953 17.3867 191.953 17.4655 192.001 17.5141L192.705 18.2183L192.001 18.9224C191.953 18.971 191.953 19.0498 192.001 19.0984C192.05 19.147 192.129 19.147 192.177 19.0984L192.969 18.3063ZM182.923 18.3427H192.881V18.0938H182.923V18.3427Z" fill="#1B1B1B"/>
<g clip-path="url(#clip5_808_195541)">
<path d="M197.86 21.9524C198.851 21.9524 199.8 21.559 200.501 20.8586C201.201 20.1583 201.594 19.2085 201.594 18.2181C201.594 17.2278 201.201 16.2779 200.501 15.5776C199.8 14.8773 198.851 14.4839 197.86 14.4839C196.87 14.4839 195.92 14.8773 195.22 15.5776C194.519 16.2779 194.126 17.2278 194.126 18.2181C194.126 19.2085 194.519 20.1583 195.22 20.8586C195.92 21.559 196.87 21.9524 197.86 21.9524Z" fill="#FAFAFA" stroke="#1B1B1B" stroke-width="0.323635" stroke-linecap="round" stroke-linejoin="round"/>
</g>
</g>
<g clip-path="url(#clip6_808_195541)">
<path d="M8.03613 35.4575H210.93V68.6923C210.93 69.3798 210.373 69.9371 209.686 69.9371H8.03613V35.4575Z" fill="#F97316" fill-opacity="0.3"/>
<path d="M11.7907 58.2736C11.6902 58.2849 11.6124 58.3316 11.5573 58.4136C11.5014 58.4957 11.4735 58.5989 11.4735 58.7234C11.4735 58.8125 11.4876 58.8896 11.5159 58.9547C11.5435 59.0197 11.5817 59.0703 11.6305 59.1064C11.6786 59.1417 11.7334 59.1594 11.7949 59.1594C11.8465 59.1594 11.8911 59.1474 11.9286 59.1233C11.9661 59.0986 11.9975 59.0664 12.023 59.0268C12.0478 58.9865 12.0686 58.9433 12.0856 58.8974C12.1019 58.8514 12.1153 58.8072 12.1259 58.7648L12.1811 58.5526C12.198 58.4833 12.221 58.4122 12.25 58.3394C12.279 58.2665 12.3172 58.199 12.3646 58.1367C12.412 58.0745 12.4707 58.0243 12.5407 57.9861C12.6107 57.9472 12.6945 57.9277 12.7921 57.9277C12.9152 57.9277 13.0245 57.9596 13.1199 58.0232C13.2154 58.0862 13.2907 58.1778 13.3459 58.298C13.4011 58.4175 13.4286 58.5621 13.4286 58.7319C13.4286 58.8945 13.4028 59.0353 13.3512 59.1541C13.2996 59.2729 13.2264 59.3659 13.1316 59.4331C13.0361 59.5003 12.923 59.5374 12.7921 59.5445V59.2156C12.8706 59.2093 12.9361 59.1838 12.9884 59.1393C13.04 59.094 13.0786 59.0363 13.104 58.9663C13.1288 58.8956 13.1412 58.8182 13.1412 58.734C13.1412 58.6414 13.1267 58.559 13.0977 58.4868C13.068 58.414 13.0269 58.3567 12.9746 58.315C12.9216 58.2732 12.8597 58.2524 12.7889 58.2524C12.7246 58.2524 12.6719 58.2708 12.6309 58.3075C12.5899 58.3436 12.5559 58.3928 12.529 58.455C12.5022 58.5165 12.4785 58.5862 12.458 58.664L12.3879 58.9207C12.3406 59.0947 12.2709 59.2326 12.1789 59.3344C12.087 59.4356 11.9654 59.4862 11.814 59.4862C11.6888 59.4862 11.5796 59.4522 11.4862 59.3843C11.3928 59.3164 11.3204 59.2245 11.2687 59.1085C11.2164 58.9925 11.1902 58.8617 11.1902 58.716C11.1902 58.5689 11.216 58.4391 11.2677 58.3266C11.3193 58.2135 11.3904 58.1244 11.4809 58.0593C11.5707 57.9942 11.674 57.9603 11.7907 57.9574V58.2736ZM13.3926 57.2082L11.7631 57.6877V57.3599L12.9597 57.0406V57.0247L11.7631 56.7043V56.3765L12.9544 56.0582V56.0423L11.7631 55.7251V55.3973L13.3926 55.8758V56.1993L12.2161 56.5303V56.5547L13.3926 56.8857V57.2082ZM13.3926 55.0963H11.7631V54.7791H13.3926V55.0963ZM11.5117 54.9361C11.5117 54.9913 11.4933 55.0387 11.4565 55.0783C11.419 55.1172 11.3745 55.1366 11.3228 55.1366C11.2705 55.1366 11.2259 55.1172 11.1892 55.0783C11.1517 55.0387 11.1329 54.9913 11.1329 54.9361C11.1329 54.8809 11.1517 54.8339 11.1892 54.795C11.2259 54.7554 11.2705 54.7356 11.3228 54.7356C11.3745 54.7356 11.419 54.7554 11.4565 54.795C11.4933 54.8339 11.5117 54.8809 11.5117 54.9361ZM13.3926 54.3524H11.7631V54.0479H12.0283V54.0277C11.9385 53.9938 11.8685 53.9383 11.8183 53.8612C11.7673 53.7841 11.7419 53.6918 11.7419 53.5843C11.7419 53.4754 11.7673 53.3841 11.8183 53.3106C11.8692 53.2363 11.9392 53.1815 12.0283 53.1462V53.1292C11.9413 53.0903 11.872 53.0284 11.8204 52.9435C11.768 52.8587 11.7419 52.7575 11.7419 52.6401C11.7419 52.4923 11.7882 52.3717 11.8808 52.2784C11.9735 52.1843 12.1132 52.1373 12.2999 52.1373H13.3926V52.4545H12.3296C12.2193 52.4545 12.1393 52.4845 12.0898 52.5446C12.0403 52.6048 12.0156 52.6765 12.0156 52.76C12.0156 52.8633 12.0474 52.9435 12.1111 53.0008C12.174 53.0581 12.255 53.0867 12.354 53.0867H13.3926V53.4029H12.3094C12.221 53.4029 12.15 53.4305 12.0962 53.4856C12.0424 53.5408 12.0156 53.6126 12.0156 53.701C12.0156 53.7611 12.0315 53.8166 12.0633 53.8675C12.0944 53.9178 12.1379 53.9584 12.1938 53.9895C12.2497 54.02 12.3144 54.0352 12.3879 54.0352H13.3926V54.3524ZM11.2199 51.3949H13.3926V51.7121H11.2199V51.3949ZM13.4286 50.494C13.4286 50.5972 13.4096 50.6906 13.3714 50.7741C13.3325 50.8575 13.2762 50.9236 13.2027 50.9724C13.1291 51.0205 13.039 51.0446 12.9322 51.0446C12.8402 51.0446 12.7645 51.0269 12.7051 50.9915C12.6457 50.9562 12.5987 50.9084 12.564 50.8483C12.5294 50.7882 12.5032 50.721 12.4855 50.6468C12.4679 50.5725 12.4544 50.4968 12.4452 50.4197C12.4339 50.3221 12.4247 50.2429 12.4176 50.1821C12.4099 50.1213 12.3975 50.0771 12.3805 50.0495C12.3635 50.0219 12.336 50.0081 12.2978 50.0081H12.2903C12.1977 50.0081 12.1259 50.0343 12.075 50.0866C12.0241 50.1382 11.9986 50.2153 11.9986 50.3179C11.9986 50.4247 12.0223 50.5088 12.0697 50.5704C12.1164 50.6312 12.1683 50.6733 12.2256 50.6966L12.1577 50.9947C12.0587 50.9594 11.9788 50.9077 11.918 50.8398C11.8564 50.7712 11.8119 50.6924 11.7843 50.6033C11.756 50.5141 11.7419 50.4204 11.7419 50.3221C11.7419 50.2571 11.7497 50.1881 11.7652 50.1153C11.7801 50.0417 11.8076 49.9731 11.848 49.9095C11.8883 49.8451 11.9459 49.7924 12.0209 49.7514C12.0951 49.7104 12.1917 49.6899 12.3105 49.6899H13.3926V49.9996H13.1698V50.0124C13.2108 50.0329 13.2511 50.0636 13.2907 50.1047C13.3303 50.1457 13.3632 50.1984 13.3894 50.2627C13.4156 50.3271 13.4286 50.4042 13.4286 50.494ZM13.174 50.425C13.174 50.3373 13.1567 50.2624 13.1221 50.2001C13.0874 50.1372 13.0421 50.0894 12.9863 50.0569C12.9297 50.0237 12.8692 50.0071 12.8049 50.0071H12.5948C12.6061 50.0184 12.6167 50.0403 12.6266 50.0728C12.6358 50.1047 12.644 50.1411 12.651 50.1821C12.6574 50.2231 12.6634 50.2631 12.6691 50.302C12.674 50.3409 12.6783 50.3734 12.6818 50.3996C12.6896 50.4611 12.7027 50.5173 12.7211 50.5683C12.7394 50.6185 12.766 50.6588 12.8006 50.6892C12.8346 50.7189 12.8798 50.7337 12.9364 50.7337C13.0149 50.7337 13.0743 50.7047 13.1146 50.6468C13.1542 50.5888 13.174 50.5149 13.174 50.425ZM12.4251 48.9502H13.3926V49.2674H11.7631V48.9629H12.0283V48.9427C11.942 48.9053 11.8727 48.8466 11.8204 48.7666C11.768 48.686 11.7419 48.5845 11.7419 48.4622C11.7419 48.3511 11.7652 48.2539 11.8119 48.1704C11.8579 48.087 11.9265 48.0223 12.0177 47.9763C12.1089 47.9303 12.2217 47.9073 12.3561 47.9073H13.3926V48.2245H12.3943C12.2762 48.2245 12.1839 48.2553 12.1174 48.3168C12.0502 48.3784 12.0166 48.4629 12.0166 48.5704C12.0166 48.6439 12.0325 48.7093 12.0644 48.7666C12.0962 48.8232 12.1429 48.8681 12.2044 48.9014C12.2652 48.9339 12.3388 48.9502 12.4251 48.9502ZM13.4255 46.7796C13.4255 46.9402 13.3912 47.0784 13.3226 47.1944C13.2533 47.3097 13.156 47.3988 13.0308 47.4618C12.9049 47.524 12.7575 47.5551 12.5884 47.5551C12.4215 47.5551 12.2744 47.524 12.1471 47.4618C12.0198 47.3988 11.9205 47.3111 11.849 47.1987C11.7776 47.0855 11.7419 46.9533 11.7419 46.8019C11.7419 46.71 11.7571 46.6209 11.7875 46.5346C11.8179 46.4483 11.8656 46.3708 11.9307 46.3022C11.9958 46.2336 12.0803 46.1795 12.1843 46.1399C12.2875 46.1003 12.413 46.0805 12.5609 46.0805H12.6733V47.3758H12.4357V46.3914C12.3522 46.3914 12.2783 46.4083 12.214 46.4423C12.1489 46.4762 12.0976 46.524 12.0601 46.5855C12.0226 46.6463 12.0039 46.7177 12.0039 46.7998C12.0039 46.8889 12.0258 46.9667 12.0697 47.0332C12.1128 47.099 12.1694 47.1499 12.2394 47.1859C12.3087 47.2213 12.384 47.239 12.4654 47.239H12.651C12.7599 47.239 12.8526 47.2199 12.929 47.1817C13.0054 47.1428 13.0637 47.0887 13.104 47.0194C13.1436 46.9501 13.1634 46.8691 13.1634 46.7765C13.1634 46.7163 13.1549 46.6615 13.138 46.612C13.1203 46.5625 13.0941 46.5197 13.0595 46.4837C13.0248 46.4476 12.982 46.42 12.9311 46.4009L12.9852 46.1007C13.0736 46.1247 13.1511 46.1679 13.2175 46.2301C13.2833 46.2916 13.3346 46.3691 13.3714 46.4624C13.4074 46.5551 13.4255 46.6608 13.4255 46.7796Z" fill="black"/>
<rect x="76.373" y="43.9223" width="32.3635" height="17.6754" rx="1.12027" fill="#FAFAFA"/>
<rect x="76.373" y="43.9223" width="32.3635" height="17.6754" rx="1.12027" stroke="#1B1B1B" stroke-width="0.24895"/>
<path d="M118.907 52.8483C118.955 52.7997 118.955 52.7208 118.907 52.6722L118.115 51.8801C118.066 51.8315 117.987 51.8315 117.939 51.8801C117.89 51.9287 117.89 52.0075 117.939 52.0561L118.643 52.7603L117.939 53.4644C117.89 53.513 117.89 53.5918 117.939 53.6404C117.987 53.689 118.066 53.689 118.115 53.6404L118.907 52.8483ZM108.861 52.8847H118.819V52.6358H108.861V52.8847Z" fill="#1B1B1B"/>
<rect x="118.943" y="43.9223" width="32.3635" height="17.6754" rx="1.12027" fill="#FAFAFA"/>
<rect x="118.943" y="43.9223" width="32.3635" height="17.6754" rx="1.12027" stroke="#1B1B1B" stroke-width="0.24895"/>
</g>
<path d="M92.0931 43.8855C92.1417 43.9342 92.2206 43.9342 92.2692 43.8855L93.0613 43.0934C93.1099 43.0448 93.1099 42.966 93.0613 42.9174C93.0127 42.8687 92.9339 42.8687 92.8853 42.9174L92.1812 43.6215L91.477 42.9174C91.4284 42.8687 91.3496 42.8687 91.301 42.9174C91.2524 42.966 91.2524 43.0448 91.301 43.0934L92.0931 43.8855ZM92.0567 22.8857V43.7975H92.3056V22.8857H92.0567Z" fill="#1B1B1B"/>
<path d="M196.332 53.4815L196.332 53.6059L196.332 53.4815ZM197.576 52.2277L197.452 52.2286L197.576 52.2277ZM197.45 22.5477C197.401 22.4994 197.322 22.5 197.274 22.549L196.487 23.3468C196.439 23.3958 196.44 23.4746 196.489 23.5228C196.538 23.5711 196.616 23.5705 196.665 23.5216L197.364 22.8124L198.073 23.5114C198.122 23.5596 198.201 23.5591 198.249 23.5101C198.297 23.4612 198.297 23.3823 198.248 23.3341L197.45 22.5477ZM151.805 53.6059L196.332 53.6059L196.332 53.357L151.805 53.357L151.805 53.6059ZM197.701 52.2268L197.487 22.6354L197.238 22.6372L197.452 52.2286L197.701 52.2268ZM196.332 53.6059C197.092 53.6059 197.706 52.9869 197.701 52.2268L197.452 52.2286C197.456 52.8505 196.954 53.357 196.332 53.357L196.332 53.6059Z" fill="#1B1B1B"/>
</g>
</g>
<g clip-path="url(#clip7_808_195541)">
<rect width="7.96639" height="34.3551" transform="translate(0.0698242 74.6675)" fill="#FAFAFA"/>
<path d="M5.05322 95.1065H2.88057V94.3321C2.88057 94.1631 2.91133 94.023 2.97286 93.912C3.0344 93.8009 3.11856 93.7178 3.22535 93.6627C3.33144 93.6075 3.45096 93.5799 3.58392 93.5799C3.71759 93.5799 3.83782 93.6079 3.94462 93.6637C4.0507 93.7189 4.13487 93.8024 4.1971 93.9141C4.25863 94.0251 4.2894 94.1648 4.2894 94.3331V94.8657H4.01145V94.3629C4.01145 94.2561 3.99306 94.1694 3.95629 94.1029C3.9188 94.0365 3.86788 93.9877 3.80352 93.9565C3.73916 93.9254 3.66596 93.9099 3.58392 93.9099C3.50188 93.9099 3.42904 93.9254 3.36539 93.9565C3.30173 93.9877 3.25187 94.0368 3.2158 94.104C3.17973 94.1705 3.1617 94.2582 3.1617 94.3671V94.7787H5.05322V95.1065ZM5.08611 92.5551C5.08611 92.7079 5.0511 92.8412 4.98108 92.9551C4.91107 93.069 4.81311 93.1574 4.68722 93.2203C4.56133 93.2832 4.41423 93.3147 4.2459 93.3147C4.07687 93.3147 3.92906 93.2832 3.80246 93.2203C3.67587 93.1574 3.57756 93.069 3.50754 92.9551C3.43752 92.8412 3.40252 92.7079 3.40252 92.5551C3.40252 92.4024 3.43752 92.2691 3.50754 92.1552C3.57756 92.0413 3.67587 91.9529 3.80246 91.89C3.92906 91.827 4.07687 91.7956 4.2459 91.7956C4.41423 91.7956 4.56133 91.827 4.68722 91.89C4.81311 91.9529 4.91107 92.0413 4.98108 92.1552C5.0511 92.2691 5.08611 92.4024 5.08611 92.5551ZM4.81983 92.5541C4.81983 92.4551 4.79366 92.373 4.74133 92.308C4.68899 92.2429 4.61933 92.1948 4.53234 92.1637C4.44535 92.1319 4.34952 92.1159 4.24484 92.1159C4.14088 92.1159 4.0454 92.1319 3.95841 92.1637C3.87071 92.1948 3.80034 92.2429 3.7473 92.308C3.69425 92.373 3.66773 92.4551 3.66773 92.5541C3.66773 92.6538 3.69425 92.7365 3.7473 92.8023C3.80034 92.8674 3.87071 92.9158 3.95841 92.9477C4.0454 92.9788 4.14088 92.9943 4.24484 92.9943C4.34952 92.9943 4.44535 92.9788 4.53234 92.9477C4.61933 92.9158 4.68899 92.8674 4.74133 92.8023C4.79366 92.7365 4.81983 92.6538 4.81983 92.5541ZM5.08611 90.7551C5.08611 90.9079 5.0511 91.0412 4.98108 91.1551C4.91107 91.2689 4.81311 91.3573 4.68722 91.4203C4.56133 91.4832 4.41423 91.5147 4.2459 91.5147C4.07687 91.5147 3.92906 91.4832 3.80246 91.4203C3.67587 91.3573 3.57756 91.2689 3.50754 91.1551C3.43752 91.0412 3.40252 90.9079 3.40252 90.7551C3.40252 90.6023 3.43752 90.469 3.50754 90.3552C3.57756 90.2413 3.67587 90.1529 3.80246 90.09C3.92906 90.027 4.07687 89.9955 4.2459 89.9955C4.41423 89.9955 4.56133 90.027 4.68722 90.09C4.81311 90.1529 4.91107 90.2413 4.98108 90.3552C5.0511 90.469 5.08611 90.6023 5.08611 90.7551ZM4.81983 90.7541C4.81983 90.655 4.79366 90.573 4.74133 90.5079C4.68899 90.4429 4.61933 90.3948 4.53234 90.3637C4.44535 90.3318 4.34952 90.3159 4.24484 90.3159C4.14088 90.3159 4.0454 90.3318 3.95841 90.3637C3.87071 90.3948 3.80034 90.4429 3.7473 90.5079C3.69425 90.573 3.66773 90.655 3.66773 90.7541C3.66773 90.8538 3.69425 90.9365 3.7473 91.0023C3.80034 91.0674 3.87071 91.1158 3.95841 91.1476C4.0454 91.1788 4.14088 91.1943 4.24484 91.1943C4.34952 91.1943 4.44535 91.1788 4.53234 91.1476C4.61933 91.1158 4.68899 91.0674 4.74133 91.0023C4.79366 90.9365 4.81983 90.8538 4.81983 90.7541ZM2.88057 89.3243H5.05322V89.6415H2.88057V89.3243Z" fill="black"/>
<g clip-path="url(#clip8_808_195541)">
<g clip-path="url(#clip9_808_195541)">
<path d="M8.03613 74.6675H209.686C210.373 74.6675 210.93 75.2248 210.93 75.9122V109.023H8.03613V74.6675Z" fill="#10B981" fill-opacity="0.3"/>
<path d="M11.7907 97.4215C11.6902 97.4328 11.6124 97.4795 11.5573 97.5616C11.5014 97.6436 11.4735 97.7469 11.4735 97.8713C11.4735 97.9605 11.4876 98.0375 11.5159 98.1026C11.5435 98.1677 11.5817 98.2182 11.6305 98.2543C11.6786 98.2897 11.7334 98.3074 11.7949 98.3074C11.8465 98.3074 11.8911 98.2953 11.9286 98.2713C11.9661 98.2465 11.9975 98.2144 12.023 98.1747C12.0478 98.1344 12.0686 98.0913 12.0856 98.0453C12.1019 97.9994 12.1153 97.9551 12.1259 97.9127L12.1811 97.7005C12.198 97.6312 12.221 97.5602 12.25 97.4873C12.279 97.4145 12.3172 97.3469 12.3646 97.2847C12.412 97.2224 12.4707 97.1722 12.5407 97.134C12.6107 97.0951 12.6945 97.0757 12.7921 97.0757C12.9152 97.0757 13.0245 97.1075 13.1199 97.1712C13.2154 97.2341 13.2907 97.3257 13.3459 97.4459C13.4011 97.5655 13.4286 97.7101 13.4286 97.8798C13.4286 98.0425 13.4028 98.1832 13.3512 98.3021C13.2996 98.4209 13.2264 98.5139 13.1316 98.5811C13.0361 98.6482 12.923 98.6854 12.7921 98.6925V98.3636C12.8706 98.3572 12.9361 98.3318 12.9884 98.2872C13.04 98.2419 13.0786 98.1843 13.104 98.1143C13.1288 98.0436 13.1412 97.9661 13.1412 97.8819C13.1412 97.7893 13.1267 97.7069 13.0977 97.6348C13.068 97.5619 13.0269 97.5046 12.9746 97.4629C12.9216 97.4212 12.8597 97.4003 12.7889 97.4003C12.7246 97.4003 12.6719 97.4187 12.6309 97.4555C12.5899 97.4916 12.5559 97.5407 12.529 97.6029C12.5022 97.6645 12.4785 97.7341 12.458 97.8119L12.3879 98.0687C12.3406 98.2426 12.2709 98.3806 12.1789 98.4824C12.087 98.5835 11.9654 98.6341 11.814 98.6341C11.6888 98.6341 11.5796 98.6002 11.4862 98.5323C11.3928 98.4644 11.3204 98.3724 11.2687 98.2564C11.2164 98.1404 11.1902 98.0096 11.1902 97.8639C11.1902 97.7168 11.216 97.587 11.2677 97.4746C11.3193 97.3614 11.3904 97.2723 11.4809 97.2072C11.5707 97.1422 11.674 97.1082 11.7907 97.1054V97.4215ZM13.3926 96.3562L11.7631 96.8357V96.5079L12.9597 96.1885V96.1726L11.7631 95.8522V95.5244L12.9544 95.2062V95.1903L11.7631 94.8731V94.5453L13.3926 95.0237V95.3473L12.2161 95.6783V95.7027L13.3926 96.0337V96.3562ZM13.3926 94.2442H11.7631V93.927H13.3926V94.2442ZM11.5117 94.084C11.5117 94.1392 11.4933 94.1866 11.4565 94.2262C11.419 94.2651 11.3745 94.2846 11.3228 94.2846C11.2705 94.2846 11.2259 94.2651 11.1892 94.2262C11.1517 94.1866 11.1329 94.1392 11.1329 94.084C11.1329 94.0289 11.1517 93.9819 11.1892 93.943C11.2259 93.9033 11.2705 93.8835 11.3228 93.8835C11.3745 93.8835 11.419 93.9033 11.4565 93.943C11.4933 93.9819 11.5117 94.0289 11.5117 94.084ZM13.3926 93.5003H11.7631V93.1958H12.0283V93.1757C11.9385 93.1417 11.8685 93.0862 11.8183 93.0091C11.7673 92.932 11.7419 92.8397 11.7419 92.7322C11.7419 92.6233 11.7673 92.5321 11.8183 92.4585C11.8692 92.3843 11.9392 92.3295 12.0283 92.2941V92.2771C11.9413 92.2382 11.872 92.1763 11.8204 92.0915C11.768 92.0066 11.7419 91.9055 11.7419 91.7881C11.7419 91.6403 11.7882 91.5197 11.8808 91.4263C11.9735 91.3323 12.1132 91.2852 12.2999 91.2852H13.3926V91.6024H12.3296C12.2193 91.6024 12.1393 91.6325 12.0898 91.6926C12.0403 91.7527 12.0156 91.8245 12.0156 91.9079C12.0156 92.0112 12.0474 92.0915 12.1111 92.1488C12.174 92.2061 12.255 92.2347 12.354 92.2347H13.3926V92.5508H12.3094C12.221 92.5508 12.15 92.5784 12.0962 92.6336C12.0424 92.6887 12.0156 92.7605 12.0156 92.8489C12.0156 92.9091 12.0315 92.9646 12.0633 93.0155C12.0944 93.0657 12.1379 93.1064 12.1938 93.1375C12.2497 93.1679 12.3144 93.1831 12.3879 93.1831H13.3926V93.5003ZM11.2199 90.5429H13.3926V90.8601H11.2199V90.5429ZM13.4286 89.6419C13.4286 89.7452 13.4096 89.8386 13.3714 89.922C13.3325 90.0055 13.2762 90.0716 13.2027 90.1204C13.1291 90.1685 13.039 90.1925 12.9322 90.1925C12.8402 90.1925 12.7645 90.1748 12.7051 90.1395C12.6457 90.1041 12.5987 90.0564 12.564 89.9963C12.5294 89.9362 12.5032 89.869 12.4855 89.7947C12.4679 89.7204 12.4544 89.6448 12.4452 89.5677C12.4339 89.4701 12.4247 89.3909 12.4176 89.33C12.4099 89.2692 12.3975 89.225 12.3805 89.1974C12.3635 89.1699 12.336 89.1561 12.2978 89.1561H12.2903C12.1977 89.1561 12.1259 89.1822 12.075 89.2346C12.0241 89.2862 11.9986 89.3633 11.9986 89.4658C11.9986 89.5726 12.0223 89.6568 12.0697 89.7183C12.1164 89.7791 12.1683 89.8212 12.2256 89.8446L12.1577 90.1427C12.0587 90.1073 11.9788 90.0557 11.918 89.9878C11.8564 89.9192 11.8119 89.8403 11.7843 89.7512C11.756 89.6621 11.7419 89.5684 11.7419 89.4701C11.7419 89.405 11.7497 89.3361 11.7652 89.2632C11.7801 89.1897 11.8076 89.1211 11.848 89.0574C11.8883 88.993 11.9459 88.9404 12.0209 88.8993C12.0951 88.8583 12.1917 88.8378 12.3105 88.8378H13.3926V89.1476H13.1698V89.1603C13.2108 89.1808 13.2511 89.2116 13.2907 89.2526C13.3303 89.2936 13.3632 89.3463 13.3894 89.4107C13.4156 89.475 13.4286 89.5521 13.4286 89.6419ZM13.174 89.573C13.174 89.4853 13.1567 89.4103 13.1221 89.3481C13.0874 89.2851 13.0421 89.2374 12.9863 89.2049C12.9297 89.1716 12.8692 89.155 12.8049 89.155H12.5948C12.6061 89.1663 12.6167 89.1882 12.6266 89.2208C12.6358 89.2526 12.644 89.289 12.651 89.33C12.6574 89.3711 12.6634 89.411 12.6691 89.4499C12.674 89.4888 12.6783 89.5214 12.6818 89.5475C12.6896 89.6091 12.7027 89.6653 12.7211 89.7162C12.7394 89.7664 12.766 89.8067 12.8006 89.8371C12.8346 89.8668 12.8798 89.8817 12.9364 89.8817C13.0149 89.8817 13.0743 89.8527 13.1146 89.7947C13.1542 89.7367 13.174 89.6628 13.174 89.573ZM12.4251 88.0981H13.3926V88.4153H11.7631V88.1108H12.0283V88.0907C11.942 88.0532 11.8727 87.9945 11.8204 87.9146C11.768 87.834 11.7419 87.7325 11.7419 87.6101C11.7419 87.4991 11.7652 87.4018 11.8119 87.3184C11.8579 87.2349 11.9265 87.1702 12.0177 87.1242C12.1089 87.0783 12.2217 87.0553 12.3561 87.0553H13.3926V87.3725H12.3943C12.2762 87.3725 12.1839 87.4032 12.1174 87.4648C12.0502 87.5263 12.0166 87.6108 12.0166 87.7183C12.0166 87.7919 12.0325 87.8573 12.0644 87.9146C12.0962 87.9712 12.1429 88.0161 12.2044 88.0493C12.2652 88.0818 12.3388 88.0981 12.4251 88.0981ZM13.4255 85.9276C13.4255 86.0881 13.3912 86.2264 13.3226 86.3424C13.2533 86.4577 13.156 86.5468 13.0308 86.6097C12.9049 86.672 12.7575 86.7031 12.5884 86.7031C12.4215 86.7031 12.2744 86.672 12.1471 86.6097C12.0198 86.5468 11.9205 86.4591 11.849 86.3466C11.7776 86.2335 11.7419 86.1012 11.7419 85.9499C11.7419 85.8579 11.7571 85.7688 11.7875 85.6825C11.8179 85.5962 11.8656 85.5188 11.9307 85.4502C11.9958 85.3816 12.0803 85.3275 12.1843 85.2879C12.2875 85.2483 12.413 85.2285 12.5609 85.2285H12.6733V86.5238H12.4357V85.5393C12.3522 85.5393 12.2783 85.5563 12.214 85.5902C12.1489 85.6242 12.0976 85.6719 12.0601 85.7334C12.0226 85.7943 12.0039 85.8657 12.0039 85.9477C12.0039 86.0369 12.0258 86.1146 12.0697 86.1811C12.1128 86.2469 12.1694 86.2978 12.2394 86.3339C12.3087 86.3693 12.384 86.3869 12.4654 86.3869H12.651C12.7599 86.3869 12.8526 86.3678 12.929 86.3297C13.0054 86.2908 13.0637 86.2366 13.104 86.1673C13.1436 86.098 13.1634 86.017 13.1634 85.9244C13.1634 85.8643 13.1549 85.8095 13.138 85.76C13.1203 85.7105 13.0941 85.6677 13.0595 85.6316C13.0248 85.5955 12.982 85.5679 12.9311 85.5489L12.9852 85.2486C13.0736 85.2727 13.1511 85.3158 13.2175 85.3781C13.2833 85.4396 13.3346 85.517 13.3714 85.6104C13.4074 85.703 13.4255 85.8088 13.4255 85.9276Z" fill="black"/>
<rect x="107.741" y="83.0073" width="32.3635" height="17.6754" rx="1.12027" fill="#FAFAFA"/>
<rect x="107.741" y="83.0073" width="32.3635" height="17.6754" rx="1.12027" stroke="#1B1B1B" stroke-width="0.24895"/>
<path d="M150.275 91.9332C150.323 91.8846 150.323 91.8058 150.275 91.7572L149.482 90.965C149.434 90.9164 149.355 90.9164 149.306 90.965C149.258 91.0137 149.258 91.0925 149.306 91.1411L150.01 91.8452L149.306 92.5494C149.258 92.598 149.258 92.6768 149.306 92.7254C149.355 92.774 149.434 92.774 149.482 92.7254L150.275 91.9332ZM140.229 91.9697H150.187V91.7207H140.229V91.9697Z" fill="#1B1B1B"/>
<rect x="150.311" y="83.0073" width="32.3635" height="17.6754" rx="1.12027" fill="#FAFAFA"/>
<rect x="150.311" y="83.0073" width="32.3635" height="17.6754" rx="1.12027" stroke="#1B1B1B" stroke-width="0.24895"/>
<path d="M192.845 91.9332C192.893 91.8846 192.893 91.8058 192.845 91.7572L192.053 90.965C192.004 90.9164 191.925 90.9164 191.877 90.965C191.828 91.0137 191.828 91.0925 191.877 91.1411L192.581 91.8452L191.877 92.5494C191.828 92.598 191.828 92.6768 191.877 92.7254C191.925 92.774 192.004 92.774 192.053 92.7254L192.845 91.9332ZM182.799 91.9697H192.757V91.7207H182.799V91.9697Z" fill="#1B1B1B"/>
<g clip-path="url(#clip10_808_195541)">
<path d="M197.736 95.5793C198.726 95.5793 199.676 95.1859 200.376 94.4856C201.077 93.7853 201.47 92.8355 201.47 91.8451C201.47 90.8547 201.077 89.9049 200.376 89.2046C199.676 88.5043 198.726 88.1108 197.736 88.1108C196.745 88.1108 195.796 88.5043 195.095 89.2046C194.395 89.9049 194.001 90.8547 194.001 91.8451C194.001 92.8355 194.395 93.7853 195.095 94.4856C195.796 95.1859 196.745 95.5793 197.736 95.5793Z" fill="#FAFAFA" stroke="#1B1B1B" stroke-width="0.323635" stroke-linecap="round" stroke-linejoin="round"/>
</g>
</g>
<path d="M8.16061 74.792H209.686C210.304 74.792 210.806 75.2935 210.806 75.9122V108.898H8.16061V74.792Z" stroke="#B0B0B0" stroke-width="0.24895"/>
</g>
<path d="M8.16061 74.792H209.686C210.304 74.792 210.806 75.2935 210.806 75.9122V107.778C210.806 108.397 210.304 108.898 209.686 108.898H8.16061V74.792Z" stroke="#E7E7E7" stroke-width="0.24895"/>
</g>
<defs>
<clipPath id="clip0_808_195541">
<path d="M0.0698242 2.22278C0.0698242 1.53533 0.627117 0.978027 1.31457 0.978027H210.93V69.9371H1.31457C0.627117 69.9371 0.0698242 69.3798 0.0698242 68.6924V2.22278Z" fill="white"/>
</clipPath>
<clipPath id="clip1_808_195541">
<rect width="202.894" height="68.9591" fill="white" transform="translate(8.03613 0.978027)"/>
</clipPath>
<clipPath id="clip2_808_195541">
<path d="M8.03613 0.978027H209.686C210.373 0.978027 210.93 1.53532 210.93 2.22278V35.4576H8.03613V0.978027Z" fill="white"/>
</clipPath>
<clipPath id="clip3_808_195541">
<rect width="9.95799" height="9.95799" fill="white" transform="translate(25.3384 13.2393)"/>
</clipPath>
<clipPath id="clip4_808_195541">
<rect width="4.61651" height="4.61651" fill="white" transform="translate(89.5225 18.2017) rotate(-45)"/>
</clipPath>
<clipPath id="clip5_808_195541">
<rect width="9.95799" height="9.95799" fill="white" transform="translate(192.881 13.2393)"/>
</clipPath>
<clipPath id="clip6_808_195541">
<path d="M8.03613 35.4575H210.93V68.6923C210.93 69.3798 210.373 69.9371 209.686 69.9371H8.03613V35.4575Z" fill="white"/>
</clipPath>
<clipPath id="clip7_808_195541">
<path d="M0.0698242 75.9122C0.0698242 75.2248 0.627117 74.6675 1.31457 74.6675H210.93V109.023H1.31457C0.627117 109.023 0.0698242 108.465 0.0698242 107.778V75.9122Z" fill="white"/>
</clipPath>
<clipPath id="clip8_808_195541">
<path d="M8.03613 74.6675H209.686C210.373 74.6675 210.93 75.2248 210.93 75.9122V107.778C210.93 108.465 210.373 109.023 209.686 109.023H8.03613V74.6675Z" fill="white"/>
</clipPath>
<clipPath id="clip9_808_195541">
<path d="M8.03613 74.6675H209.686C210.373 74.6675 210.93 75.2248 210.93 75.9122V109.023H8.03613V74.6675Z" fill="white"/>
</clipPath>
<clipPath id="clip10_808_195541">
<rect width="9.95799" height="9.95799" fill="white" transform="translate(192.757 86.8662)"/>
</clipPath>
</defs>
</svg>
